HIERARCHY
ROOT Hips
{
	OFFSET 0.000000 0.000000 0.000000
	CHANNELS 6 Xposition Yposition Zposition Xrotation Yrotation Zrotation
	JOINT LeftUpLeg_virtual
	{
		OFFSET 0.000000 0.000000 0.000000
		CHANNELS 3 Xrotation Yrotation Zrotation
		JOINT LeftUpLeg
		{
			OFFSET 15.427100 -6.655098 0.678600
			CHANNELS 3 Xrotation Yrotation Zrotation
			JOINT LeftLeg
			{
				OFFSET 4.081073 -39.591068 13.024000
				CHANNELS 3 Xrotation Yrotation Zrotation
				JOINT LeftFoot
				{
					OFFSET -4.081074 -37.707932 -15.979700
					CHANNELS 3 Xrotation Yrotation Zrotation
					JOINT LeftToeBase
					{
						OFFSET 5.346399 -15.068900 20.645000
						CHANNELS 3 Xrotation Yrotation Zrotation
						JOINT LeftToe_End
						{
							OFFSET 2.754700 0.931300 11.300900
							CHANNELS 3 Xrotation Yrotation Zrotation
							End Site
							{
								OFFSET 0 0 0
							}
						}
					}
				}
			}
		}
	}
	JOINT RightUpLeg_virtual
	{
		OFFSET 0.000000 0.000000 0.000000
		CHANNELS 3 Xrotation Yrotation Zrotation
		JOINT RightUpLeg
		{
			OFFSET -15.569500 -6.655098 0.678600
			CHANNELS 3 Xrotation Yrotation Zrotation
			JOINT RightLeg
			{
				OFFSET -4.081825 -39.591045 13.023800
				CHANNELS 3 Xrotation Yrotation Zrotation
				JOINT RightFoot
				{
					OFFSET 4.081824 -37.707954 -15.979600
					CHANNELS 3 Xrotation Yrotation Zrotation
					JOINT RightToeBase
					{
						OFFSET -5.346400 -15.068900 20.645000
						CHANNELS 3 Xrotation Yrotation Zrotation
						JOINT RightToe_End
						{
							OFFSET -2.754700 0.931300 11.300900
							CHANNELS 3 Xrotation Yrotation Zrotation
							End Site
							{
								OFFSET 0 0 0
							}
						}
					}
				}
			}
		}
	}
	JOINT Spine_virtual
	{
		OFFSET 0.000000 0.000000 0.000000
		CHANNELS 3 Xrotation Yrotation Zrotation
		JOINT Spine
		{
			OFFSET -0.279200 12.230698 -2.892100
			CHANNELS 3 Xrotation Yrotation Zrotation
			JOINT Spine1
			{
				OFFSET -0.232667 10.192268 -1.242267
				CHANNELS 3 Xrotation Yrotation Zrotation
				JOINT Spine1_split
				{
					OFFSET -0.232667 10.192268 -1.242267
					CHANNELS 3 Xrotation Yrotation Zrotation
					JOINT Spine2
					{
						OFFSET -0.232667 10.192268 -1.242267
						CHANNELS 3 Xrotation Yrotation Zrotation
						JOINT Neck_virtual
						{
							OFFSET 0.000000 0.000000 0.000000
							CHANNELS 3 Xrotation Yrotation Zrotation
							JOINT Neck
							{
								OFFSET -0.418800 17.814194 8.416900
								CHANNELS 3 Xrotation Yrotation Zrotation
								JOINT Head
								{
									OFFSET 0.000000 7.031097 3.806800
									CHANNELS 3 Xrotation Yrotation Zrotation
									JOINT HeadTop_End
									{
										OFFSET 0.000000 24.646606 12.978600
										CHANNELS 3 Xrotation Yrotation Zrotation
										End Site
										{
											OFFSET 0 0 0
										}
									}
								}
							}
						}
						JOINT LeftShoulder_virtual
						{
							OFFSET 0.000000 0.000000 0.000000
							CHANNELS 3 Xrotation Yrotation Zrotation
							JOINT LeftShoulder
							{
								OFFSET 8.476499 7.247704 -3.868750
								CHANNELS 3 Xrotation Yrotation Zrotation
								JOINT LeftShoulder_split
								{
									OFFSET 8.476499 7.247704 -3.868750
									CHANNELS 3 Xrotation Yrotation Zrotation
									JOINT LeftArm
									{
										OFFSET 9.308998 -2.777710 0.208600
										CHANNELS 3 Xrotation Yrotation Zrotation
										JOINT LeftForeArm
										{
											OFFSET 29.972298 0.000000 0.000000
											CHANNELS 3 Xrotation Yrotation Zrotation
											JOINT LeftHand
											{
												OFFSET 26.026505 0.000000 0.000000
												CHANNELS 3 Xrotation Yrotation Zrotation
												End Site
												{
													OFFSET 0 0 0
												}
											}
										}
									}
								}
							}
						}
						JOINT RightShoulder_virtual
						{
							OFFSET 0.000000 0.000000 0.000000
							CHANNELS 3 Xrotation Yrotation Zrotation
							JOINT RightShoulder
							{
								OFFSET -7.570500 7.247704 -3.868750
								CHANNELS 3 Xrotation Yrotation Zrotation
								JOINT RightShoulder_split
								{
									OFFSET -7.570500 7.247704 -3.868750
									CHANNELS 3 Xrotation Yrotation Zrotation
									JOINT RightArm
									{
										OFFSET -9.308998 -2.777710 0.208500
										CHANNELS 3 Xrotation Yrotation Zrotation
										JOINT RightForeArm
										{
											OFFSET -29.972300 0.000000 0.000000
											CHANNELS 3 Xrotation Yrotation Zrotation
											JOINT RightHand
											{
												OFFSET -26.026505 0.000000 0.000000
												CHANNELS 3 Xrotation Yrotation Zrotation
												End Site
												{
													OFFSET 0 0 0
												}
											}
										}
									}
								}
							}
						}
					}
				}
			}
		}
	}
}
MOTION
Frames: 8
Frame Time: 0.03333333
2.099393 89.626373 5.192619 0.000000 0.000000 0.000000 -13.235283 -54.114752 -7.887337 -18.675428 1.638183 13.102861 23.474704 -9.630030 -0.870657 1.786303 -3.638190 -1.713868 -2.346971 -5.288109 3.477215 0.000000 0.000000 0.000000 -8.872413 -51.085464 -5.773246 -0.301579 -10.491408 -19.233027 29.824745 5.064038 -2.106296 -13.552301 -10.392192 27.370766 -7.324798 -1.030168 0.388858 0.000000 0.000000 0.000000 -14.074348 -46.728258 -8.101795 5.602596 5.851999 -1.346765 10.937760 10.119880 -3.440496 0.941209 -1.890118 0.615985 0.000000 0.000000 0.000000 10.856900 9.554136 -4.112810 -6.902707 -3.654184 1.589084 -4.390639 21.816840 0.187270 0.000000 0.000000 0.000000 10.023702 9.317435 -3.180423 2.424842 1.454097 -3.390223 -5.699734 2.634074 -6.112504 -14.842187 -3.262135 -56.372854 2.163315 -53.553932 1.210454 0.000000 0.000000 0.000000 9.961521 9.878034 -2.852791 2.660551 8.728811 9.621911 -2.934417 4.532004 -0.602547 -1.687260 -29.355409 65.835756 -8.576397 50.756550 9.391017 0.000000 0.000000 0.000000 
2.373770 90.099884 3.900436 0.000000 0.000000 0.000000 -12.164488 -53.892610 -6.768659 -18.655769 1.332084 13.430069 22.453704 -10.137567 -0.932314 1.195627 -4.488789 -0.359121 -1.416499 -4.971541 2.520379 0.000000 0.000000 0.000000 -8.638229 -50.542208 -5.137290 -0.059674 -10.460348 -20.148064 28.557199 4.994703 -2.287622 -15.065758 -9.733453 25.054852 -3.192660 -1.268846 0.743259 0.000000 0.000000 0.000000 -13.319423 -46.897790 -7.740179 5.455600 5.722011 -1.149995 11.218516 10.146517 -3.418664 1.437325 -1.427759 0.402946 0.000000 0.000000 0.000000 11.032185 9.554056 -4.051848 -6.898661 -3.387294 1.645821 -4.210924 22.418383 0.107190 0.000000 0.000000 0.000000 10.571924 9.293719 -3.208627 2.455241 1.263891 -3.657524 -5.148524 2.658169 -5.883257 -13.190308 -2.113734 -57.415403 1.992636 -52.037733 1.256292 0.000000 0.000000 0.000000 10.549176 9.945377 -2.934462 2.631159 9.100092 10.345198 -3.625352 4.054578 -0.126772 -0.862173 -29.679204 65.728270 -8.261522 49.745169 9.232047 0.000000 0.000000 0.000000 
2.875465 90.085617 1.466347 0.000000 0.000000 0.000000 -10.708972 -52.789098 -5.435280 -19.343154 1.165114 14.582563 20.552553 -10.439004 -1.313768 1.794654 -5.209990 -1.734141 -0.724337 -4.473467 1.375064 0.000000 0.000000 0.000000 -7.907623 -48.981947 -4.281729 -1.208166 -10.421486 -20.952121 29.241061 5.466372 -1.646991 -18.200323 -8.581144 20.173877 1.164967 -1.284680 0.601832 0.000000 0.000000 0.000000 -12.304593 -45.906473 -7.074294 5.627721 5.292947 -1.264011 11.793308 10.063322 -3.393324 1.964956 -0.747876 0.307173 0.000000 0.000000 0.000000 11.547972 9.446081 -3.995976 -8.008191 -2.957383 1.846876 -4.076970 22.451926 -0.016973 0.000000 0.000000 0.000000 11.381059 9.172838 -3.264310 2.414411 1.251191 -3.414577 -4.716638 1.968011 -4.514870 -12.387757 -0.838114 -59.828557 3.082281 -50.825548 2.667333 0.000000 0.000000 0.000000 11.500924 9.861370 -3.138799 2.745675 9.449783 11.179267 -4.172838 3.460297 0.173286 -1.288318 -27.720808 64.315445 -7.643185 49.146664 8.487310 0.000000 0.000000 0.000000 
3.484601 89.446884 -1.927963 0.000000 0.000000 0.000000 -9.063164 -51.163048 -4.175926 -21.176283 1.213142 16.052048 18.602304 -10.118418 -1.740993 3.645037 -5.480575 -4.899154 -0.337713 -3.846679 0.212444 0.000000 0.000000 0.000000 -6.570124 -46.720003 -3.233557 -4.042175 -10.666099 -21.450674 32.549529 6.684912 0.056773 -20.474395 -6.465162 14.259394 2.669849 -1.297327 0.135443 0.000000 0.000000 0.000000 -10.815589 -44.008586 -6.000156 6.052318 4.572868 -1.646689 12.614127 9.818102 -3.349061 1.932000 -0.364249 0.672378 0.000000 0.000000 0.000000 12.434923 9.191844 -3.946722 -10.119509 -2.408238 2.200806 -4.138289 21.916050 -0.104095 0.000000 0.000000 0.000000 12.462180 8.912422 -3.334130 2.345264 1.481760 -2.672918 -4.400905 0.994215 -2.610621 -13.501827 -0.127556 -62.783119 4.478032 -49.163148 4.591768 0.000000 0.000000 0.000000 12.738365 9.586934 -3.390411 2.977912 9.765314 11.759910 -4.549211 2.772391 0.140686 -3.273224 -23.877168 61.768864 -6.946284 49.580388 7.268937 0.000000 0.000000 0.000000 
4.114057 88.045074 -5.737896 0.000000 0.000000 0.000000 -6.868787 -49.016480 -2.856085 -24.662430 1.540308 17.469322 17.389211 -8.822741 -1.936264 6.455426 -5.473171 -7.757685 0.114975 -3.249163 -1.009917 0.000000 0.000000 0.000000 -4.898904 -44.373068 -2.248787 -8.880124 -11.542526 -21.419524 37.686962 9.113805 2.690596 -20.029907 -3.332614 9.412212 -0.677685 -1.400850 -0.556620 0.000000 0.000000 0.000000 -8.740771 -41.411010 -4.608273 6.605191 3.645887 -2.181867 13.703528 9.350053 -3.285593 1.963618 0.003427 1.318305 0.000000 0.000000 0.000000 13.663462 8.731824 -3.910865 -13.155027 -1.882834 2.682617 -4.715022 20.624140 -0.011360 0.000000 0.000000 0.000000 13.790412 8.450557 -3.432997 2.277526 1.809847 -1.593312 -4.102872 -0.018889 -0.931687 -16.189034 -0.376996 -65.322468 5.045954 -46.869195 5.999739 0.000000 0.000000 0.000000 14.191029 9.091057 -3.617212 3.295837 10.024589 11.778788 -4.943620 2.286549 0.054716 -6.202086 -18.771892 58.706521 -6.399138 51.662970 5.670063 0.000000 0.000000 0.000000 
4.519585 85.933998 -9.040928 0.000000 0.000000 0.000000 -3.972718 -46.289862 -1.445455 -30.544090 1.633597 18.390136 17.574118 -7.172840 -1.826513 10.421314 -6.067145 -9.673829 -0.206529 -2.770003 -1.850934 0.000000 0.000000 0.000000 -2.808405 -41.610810 -1.266383 -15.175190 -13.095059 -20.497645 43.365756 12.927181 5.680933 -17.681818 0.642150 5.819757 -7.094258 -1.551308 -1.270880 0.000000 0.000000 0.000000 -5.909244 -38.449823 -3.116230 7.303050 2.603205 -2.684110 15.132750 8.642319 -3.254608 1.978104 0.412996 1.534420 0.000000 0.000000 0.000000 15.251495 8.077704 -3.899867 -16.836693 -1.583530 3.241328 -5.919044 18.784977 0.329875 0.000000 0.000000 0.000000 15.391075 7.805073 -3.596778 2.217057 2.075190 -0.424092 -3.606969 -0.971889 0.174800 -19.611237 -1.639759 -66.603292 4.220808 -44.715408 6.351888 0.000000 0.000000 0.000000 15.837416 8.398506 -3.799645 3.668592 10.242792 11.109029 -5.312861 2.134297 -0.207179 -9.314232 -13.754551 55.786994 -5.956051 55.422231 3.628860 0.000000 0.000000 0.000000 
4.630748 83.259354 -12.039436 0.000000 0.000000 0.000000 -0.338216 -42.759764 0.062140 -39.117152 1.156856 18.964824 19.659595 -6.537945 -1.468530 15.496564 -8.324709 -11.655361 -1.666444 -2.357296 -1.907156 0.000000 0.000000 0.000000 0.241773 -38.258980 -0.059274 -21.819599 -15.541491 -18.241147 48.589713 17.261616 8.567260 -15.835544 5.083593 1.588673 -12.397264 -1.631470 -1.684406 0.000000 0.000000 0.000000 -2.124846 -35.555465 -1.618521 8.112758 1.673311 -3.015366 16.895494 7.751700 -3.310715 1.962559 0.636541 1.615679 0.000000 0.000000 0.000000 17.112096 7.259937 -3.930931 -20.911278 -1.564553 3.722824 -7.806603 16.462544 0.980322 0.000000 0.000000 0.000000 17.215106 7.004635 -3.870063 2.205997 2.092956 0.561668 -2.710930 -2.061070 0.770389 -22.878229 -3.991842 -66.235725 2.076466 -43.951612 5.622445 0.000000 0.000000 0.000000 17.676917 7.585215 -3.961725 4.078082 10.591483 9.970063 -5.551386 2.714973 -0.615546 -12.122851 -10.039450 53.637448 -5.341430 60.451081 1.002823 0.000000 0.000000 0.000000 
4.398556 80.008842 -14.663605 0.000000 0.000000 0.000000 3.962375 -38.062821 1.516215 -49.268098 0.723645 18.653911 23.034258 -6.161232 -1.150145 18.770176 -11.449414 -11.835786 -3.428305 -2.123611 -1.450595 0.000000 0.000000 0.000000 4.084678 -34.217226 1.214787 -28.238191 -18.817572 -14.759508 52.949757 21.166116 11.284004 -16.061441 9.531283 -4.186173 -14.207896 -1.564712 -1.683398 0.000000 0.000000 0.000000 2.266159 -32.658341 -0.304342 8.984277 1.042253 -3.126789 18.959154 6.751698 -3.503567 1.785512 0.758955 1.442806 0.000000 0.000000 0.000000 19.165909 6.345538 -4.044916 -25.058053 -1.890673 3.971599 -10.287724 13.602325 1.824017 0.000000 0.000000 0.000000 19.170500 6.128458 -4.257939 2.225413 1.856956 1.282141 -1.903415 -2.990255 0.676994 -24.905884 -7.191099 -63.855766 -0.833242 -46.215246 3.949252 0.000000 0.000000 0.000000 19.685121 6.730906 -4.150462 4.482710 11.244846 8.489152 -5.491746 3.725854 -1.041458 -14.183213 -8.273226 52.329166 -4.113737 66.282799 -2.431650 0.000000 0.000000 0.000000 
